<?xml version="1.0" standalone="no"?>
<!DOCTYPE svg PUBLIC "-//W3C//DTD SVG 20010904//EN"
 "http://www.w3.org/TR/2001/REC-SVG-20010904/DTD/svg10.dtd">
<svg version="1.0" xmlns="http://www.w3.org/2000/svg"
 width="1024.000000pt" height="1024.000000pt" viewBox="0 0 1024.000000 1024.000000"
 preserveAspectRatio="xMidYMid meet">
<metadata>
Created by potrace 1.14, written by Peter Selinger 2001-2017
</metadata>
<g transform="translate(0.000000,1024.000000) scale(0.100000,-0.100000)"
fill="#000000" stroke="none">
<path d="M0 5120 l0 -5120 5120 0 5120 0 0 5120 0 5120 -5120 0 -5120 0 0
-5120z m8798 4483 c-82 -2 -214 -2 -295 0 -82 1 -15 3 147 3 162 0 229 -2 148
-3z m-535 -10 c-24 -2 -62 -2 -85 0 -24 2 -5 4 42 4 47 0 66 -2 43 -4z m755 0
c-10 -2 -26 -2 -35 0 -10 3 -2 5 17 5 19 0 27 -2 18 -5z m-930 -10 c-10 -2
-28 -2 -40 0 -13 2 -5 4 17 4 22 1 32 -1 23 -4z m1097 -37 c39 -19 84 -49 100
-67 l30 -33 -38 32 c-47 40 -121 78 -190 97 -46 14 -48 15 -12 10 22 -2 72
-20 110 -39z m-1192 27 c-13 -2 -33 -2 -45 0 -13 2 -3 4 22 4 25 0 35 -2 23
-4z m-95 -10 c-10 -2 -28 -2 -40 0 -13 2 -5 4 17 4 22 1 32 -1 23 -4z m-75
-10 c-7 -2 -19 -2 -25 0 -7 3 -2 5 12 5 14 0 19 -2 13 -5z m-50 -10 c-7 -2
-21 -2 -30 0 -10 3 -4 5 12 5 17 0 24 -2 18 -5z m-60 -10 c-7 -2 -21 -2 -30 0
-10 3 -4 5 12 5 17 0 24 -2 18 -5z m-60 -10 c-7 -2 -19 -2 -25 0 -7 3 -2 5 12
5 14 0 19 -2 13 -5z m-56 -9 c-3 -3 -12 -4 -19 -1 -8 3 -5 6 6 6 11 1 17 -2
13 -5z m-40 -10 c-3 -3 -12 -4 -19 -1 -8 3 -5 6 6 6 11 1 17 -2 13 -5z m-40
-10 c-3 -3 -12 -4 -19 -1 -8 3 -5 6 6 6 11 1 17 -2 13 -5z m-152 -39 c-66 -18
-133 -38 -148 -44 -36 -14 -61 -13 -27 0 47 19 255 78 275 78 11 0 -34 -15
-100 -34z m2042 -128 c17 -34 34 -76 38 -92 3 -17 -4 -5 -16 25 -24 60 -59
120 -93 160 -19 22 -18 22 10 -3 16 -15 44 -55 61 -90z m-2402 9 c-390 -155
-729 -356 -1060 -629 l-60 -49 50 47 c156 149 541 402 800 525 113 54 395 169
415 169 8 0 -57 -28 -145 -63z m2463 -296 c0 -63 -2 -108 -4 -100 -6 31 -10
264 -3 240 4 -14 7 -77 7 -140z m-11 -257 c-2 -21 -4 -6 -4 32 0 39 2 55 4 38
2 -18 2 -50 0 -70z m-10 -95 c-2 -13 -4 -5 -4 17 -1 22 1 32 4 23 2 -10 2 -28
0 -40z m-3567 -31 c0 -2 -12 -14 -27 -28 l-28 -24 24 28 c23 25 31 32 31 24z
m3557 -59 c-2 -13 -4 -5 -4 17 -1 22 1 32 4 23 2 -10 2 -28 0 -40z m-3637 -11
c0 -1 -51 -52 -112 -112 l-113 -110 110 113 c102 104 115 117 115 109z m3627
-79 c-2 -13 -4 -5 -4 17 -1 22 1 32 4 23 2 -10 2 -28 0 -40z m-7649 5 c-97 -2
-259 -2 -360 0 -101 1 -21 2 177 2 198 0 280 -1 183 -2z m-561 -9 c-3 -3 -12
-4 -19 -1 -8 3 -5 6 6 6 11 1 17 -2 13 -5z m881 -1 c-21 -2 -55 -2 -75 0 -21
2 -4 4 37 4 41 0 58 -2 38 -4z m-978 -26 c-67 -24 -107 -46 -150 -81 -21 -18
-22 -18 -10 -2 29 38 159 104 205 105 11 0 -9 -10 -45 -22z m1093 16 c-13 -2
-33 -2 -45 0 -13 2 -3 4 22 4 25 0 35 -2 23 -4z m95 -10 c-10 -2 -28 -2 -40 0
-13 2 -5 4 17 4 22 1 32 -1 23 -4z m90 -10 c-10 -2 -28 -2 -40 0 -13 2 -5 4
17 4 22 1 32 -1 23 -4z m7019 -25 c-3 -7 -5 -2 -5 12 0 14 2 19 5 13 2 -7 2
-19 0 -25z m-6964 15 c-7 -2 -19 -2 -25 0 -7 3 -2 5 12 5 14 0 19 -2 13 -5z
m60 -10 c-7 -2 -21 -2 -30 0 -10 3 -4 5 12 5 17 0 24 -2 18 -5z m60 -10 c-7
-2 -21 -2 -30 0 -10 3 -4 5 12 5 17 0 24 -2 18 -5z m87 -13 c20 -6 21 -8 5 -8
-11 0 -33 4 -50 8 -27 7 -27 8 -5 8 14 0 36 -4 50 -8z m6747 -32 c-3 -7 -5 -2
-5 12 0 14 2 19 5 13 2 -7 2 -19 0 -25z m-6690 16 c-3 -3 -12 -4 -19 -1 -8 3
-5 6 6 6 11 1 17 -2 13 -5z m88 -18 c28 -8 43 -15 35 -15 -8 0 -37 6 -65 13
-27 8 -43 15 -35 15 8 0 38 -6 65 -13z m-1865 -20 c0 -2 -8 -10 -17 -17 -16
-13 -17 -12 -4 4 13 16 21 21 21 13z m1965 -6 c13 -5 14 -9 5 -9 -8 0 -24 4
-35 9 -13 5 -14 9 -5 9 8 0 24 -4 35 -9z m6492 -27 c-3 -10 -5 -4 -5 12 0 17
2 24 5 18 2 -7 2 -21 0 -30z m-6392 -3 c28 -10 43 -18 35 -18 -8 0 -37 8 -65
18 -27 10 -43 18 -35 18 8 0 38 -8 65 -18z m2534 -27 c-109 -118 -312 -386
-403 -535 -27 -43 -50 -78 -53 -78 -11 0 111 188 199 308 115 156 280 352 296
352 3 0 -15 -21 -39 -47z m-4663 -18 c-19 -24 -43 -68 -54 -97 -28 -77 -33
-86 -26 -53 8 45 47 126 78 163 40 47 41 39 2 -13z m2351 -34 c400 -159 791
-390 1105 -654 121 -101 347 -328 441 -442 195 -239 418 -593 541 -863 91
-197 217 -544 203 -558 -2 -2 -16 38 -32 88 -68 225 -190 510 -305 713 -206
364 -378 594 -640 855 -247 248 -463 410 -803 604 -200 115 -309 167 -522 252
-88 35 -155 64 -148 64 6 0 78 -27 160 -59z m6160 27 c-3 -7 -5 -2 -5 12 0 14
2 19 5 13 2 -7 2 -19 0 -25z m-10 -50 c-3 -7 -5 -2 -5 12 0 14 2 19 5 13 2 -7
2 -19 0 -25z m-10 -40 c-3 -8 -6 -5 -6 6 -1 11 2 17 5 13 3 -3 4 -12 1 -19z
m-10 -40 c-3 -8 -6 -5 -6 6 -1 11 2 17 5 13 3 -3 4 -12 1 -19z m-10 -40 c-3
-8 -6 -5 -6 6 -1 11 2 17 5 13 3 -3 4 -12 1 -19z m-8560 -30 c-3 -8 -6 -5 -6
6 -1 11 2 17 5 13 3 -3 4 -12 1 -19z m8550 -10 c-3 -8 -6 -5 -6 6 -1 11 2 17
5 13 3 -3 4 -12 1 -19z m-8560 -190 c-2 -35 -3 -7 -3 62 0 69 1 97 3 63 2 -35
2 -91 0 -125z m8548 140 c-11 -51 -96 -310 -101 -306 -2 3 13 56 35 119 21 63
44 138 50 167 14 56 27 73 16 20z m-8538 -330 c-2 -18 -4 -4 -4 32 0 36 2 50
4 33 2 -18 2 -48 0 -65z m8388 -109 c-61 -149 -161 -346 -248 -489 -88 -144
-233 -351 -288 -410 l-41 -45 44 55 c195 243 412 613 528 902 24 59 46 106 48
104 2 -2 -18 -55 -43 -117z m-4106 80 c-9 -17 -7 -25 12 -47 l23 -27 -28 26
c-24 23 -26 30 -17 48 7 11 14 21 17 21 2 0 0 -9 -7 -21z m-4272 -71 c-2 -13
-4 -5 -4 17 -1 22 1 32 4 23 2 -10 2 -28 0 -40z m4512 -248 c210 -268 397
-580 527 -875 61 -140 164 -410 164 -429 -1 -6 -27 59 -59 144 -193 513 -427
914 -779 1329 -62 74 -62 75 -7 16 31 -33 100 -116 154 -185z m-4502 148 c-2
-13 -4 -3 -4 22 0 25 2 35 4 23 2 -13 2 -33 0 -45z m10 -75 c-3 -10 -5 -4 -5
12 0 17 2 24 5 18 2 -7 2 -21 0 -30z m10 -60 c-3 -10 -5 -4 -5 12 0 17 2 24 5
18 2 -7 2 -21 0 -30z m10 -60 c-3 -10 -5 -4 -5 12 0 17 2 24 5 18 2 -7 2 -21
0 -30z m10 -60 c-3 -10 -5 -4 -5 12 0 17 2 24 5 18 2 -7 2 -21 0 -30z m10 -55
c-3 -7 -5 -2 -5 12 0 14 2 19 5 13 2 -7 2 -19 0 -25z m10 -40 c-3 -8 -6 -5 -6
6 -1 11 2 17 5 13 3 -3 4 -12 1 -19z m10 -40 c-3 -8 -6 -5 -6 6 -1 11 2 17 5
13 3 -3 4 -12 1 -19z m10 -40 c-3 -8 -6 -5 -6 6 -1 11 2 17 5 13 3 -3 4 -12 1
-19z m21 -83 c0 -16 -2 -15 -8 5 -4 14 -8 34 -8 45 0 16 2 15 8 -5 4 -14 8
-34 8 -45z m162 -465 c52 -120 58 -138 25 -76 -36 65 -104 244 -149 387 -56
179 -41 154 23 -41 33 -96 78 -218 101 -270z m7530 117 c0 -2 -12 -14 -27 -28
l-28 -24 24 28 c23 25 31 32 31 24z m-50 -60 c0 -2 -15 -16 -32 -33 l-33 -29
29 33 c28 30 36 37 36 29z m-250 -258 c-287 -279 -623 -516 -962 -677 -192
-92 -502 -211 -515 -198 -3 2 22 12 54 21 86 25 311 116 448 181 339 160 690
406 975 682 80 78 147 141 150 141 3 0 -65 -68 -150 -150z m-6985 -286 c103
-175 326 -489 415 -583 3 -3 34 -37 70 -75 l65 -70 -58 55 c-121 114 -316 370
-458 602 -79 128 -229 407 -229 424 0 5 31 -50 69 -123 38 -72 95 -176 126
-230z m4734 -152 c23 -79 41 -151 40 -160 0 -9 -18 47 -40 124 -50 179 -53
191 -46 185 3 -3 24 -70 46 -149z m-511 -211 c0 -9 -3 -7 -8 5 -5 11 -8 29 -8
40 0 16 2 15 8 -5 4 -14 8 -32 8 -40z m559 8 c-3 -8 -6 -5 -6 6 -1 11 2 17 5
13 3 -3 4 -12 1 -19z m10 -40 c-3 -8 -6 -5 -6 6 -1 11 2 17 5 13 3 -3 4 -12 1
-19z m-560 -10 c-3 -8 -6 -5 -6 6 -1 11 2 17 5 13 3 -3 4 -12 1 -19z m581 -73
c0 -16 -2 -15 -8 5 -4 14 -8 34 -8 45 0 16 2 15 8 -5 4 -14 8 -34 8 -45z
m-571 33 c-3 -8 -6 -5 -6 6 -1 11 2 17 5 13 3 -3 4 -12 1 -19z m10 -40 c-3 -8
-6 -5 -6 6 -1 11 2 17 5 13 3 -3 4 -12 1 -19z m10 -40 c-3 -8 -6 -5 -6 6 -1
11 2 17 5 13 3 -3 4 -12 1 -19z m560 -15 c-3 -10 -5 -4 -5 12 0 17 2 24 5 18
2 -7 2 -21 0 -30z m-550 -40 c-3 -10 -5 -4 -5 12 0 17 2 24 5 18 2 -7 2 -21 0
-30z m560 -20 c-3 -10 -5 -4 -5 12 0 17 2 24 5 18 2 -7 2 -21 0 -30z m617 -13
c-28 -10 -66 -20 -85 -24 -19 -3 -2 5 36 18 39 13 77 24 85 24 8 0 -8 -8 -36
-18z m-1156 -70 c0 -22 -1 -22 -8 5 -4 17 -8 41 -8 55 0 22 1 22 8 -5 4 -16 8
-41 8 -55z m560 -25 c0 -25 -2 -24 -9 10 -10 51 -10 92 1 50 4 -16 8 -43 8
-60z m469 59 c-3 -3 -12 -4 -19 -1 -8 3 -5 6 6 6 11 1 17 -2 13 -5z m-38 -8
c-7 -7 -131 -37 -136 -33 -2 3 22 11 54 20 59 15 90 20 82 13z m-156 -43 c-7
-2 -21 -2 -30 0 -10 3 -4 5 12 5 17 0 24 -2 18 -5z m-60 -10 c-7 -2 -19 -2
-25 0 -7 3 -2 5 12 5 14 0 19 -2 13 -5z m-766 -40 c-3 -10 -5 -4 -5 12 0 17 2
24 5 18 2 -7 2 -21 0 -30z m716 30 c-7 -2 -19 -2 -25 0 -7 3 -2 5 12 5 14 0
19 -2 13 -5z m-56 -9 c-3 -3 -12 -4 -19 -1 -8 3 -5 6 6 6 11 1 17 -2 13 -5z
m-54 -11 c-7 -2 -19 -2 -25 0 -7 3 -2 5 12 5 14 0 19 -2 13 -5z m-4173 -163
c23 -24 222 -179 290 -227 257 -182 605 -370 882 -478 54 -21 96 -40 94 -42
-2 -2 -50 15 -107 37 -452 179 -996 521 -1249 787 l-65 68 75 -70 c41 -38 77
-72 80 -75z m3577 83 c-3 -10 -5 -2 -5 17 0 19 2 27 5 18 2 -10 2 -26 0 -35z
m10 -95 c-2 -13 -4 -3 -4 22 0 25 2 35 4 23 2 -13 2 -33 0 -45z m10 -90 c-2
-13 -4 -5 -4 17 -1 22 1 32 4 23 2 -10 2 -28 0 -40z m10 -175 c-2 -27 -3 -5
-3 47 0 52 1 74 3 48 2 -27 2 -69 0 -95z m10 -2600 c-1 -461 -2 -86 -2 832 0
919 1 1296 2 838 2 -457 2 -1209 0 -1670z m-2262 2107 c28 -10 43 -18 35 -18
-8 0 -37 8 -65 18 -27 10 -43 18 -35 18 8 0 38 -8 65 -18z m115 -35 c19 -7 28
-13 20 -13 -8 0 -31 6 -50 13 -19 7 -28 13 -20 13 8 0 31 -6 50 -13z m90 -25
c20 -6 21 -8 5 -8 -11 0 -29 3 -40 8 -25 11 1 11 35 0z m105 -24 c28 -8 43
-15 35 -15 -8 0 -37 6 -65 13 -27 8 -43 15 -35 15 8 0 38 -6 65 -13z m82 -22
c-3 -3 -12 -4 -19 -1 -8 3 -5 6 6 6 11 1 17 -2 13 -5z m56 -11 c-7 -2 -21 -2
-30 0 -10 3 -4 5 12 5 17 0 24 -2 18 -5z m60 -10 c-7 -2 -21 -2 -30 0 -10 3
-4 5 12 5 17 0 24 -2 18 -5z m60 -10 c-7 -2 -21 -2 -30 0 -10 3 -4 5 12 5 17
0 24 -2 18 -5z m50 -10 c-7 -2 -19 -2 -25 0 -7 3 -2 5 12 5 14 0 19 -2 13 -5z
m75 -10 c-10 -2 -28 -2 -40 0 -13 2 -5 4 17 4 22 1 32 -1 23 -4z m95 -10 c-13
-2 -33 -2 -45 0 -13 2 -3 4 22 4 25 0 35 -2 23 -4z m100 -10 c-13 -2 -33 -2
-45 0 -13 2 -3 4 22 4 25 0 35 -2 23 -4z m170 -10 c-24 -2 -62 -2 -85 0 -24 2
-5 4 42 4 47 0 66 -2 43 -4z m115 -1380 l-3 -1378 -2 1369 c-3 1081 -6 1372
-16 1378 -8 5 -7 8 6 8 16 0 17 -71 15 -1377z m62 -1598 c47 -93 137 -182 228
-226 39 -18 69 -35 67 -37 -2 -2 -34 11 -71 29 -142 70 -267 238 -278 374 l-6
60 13 -66 c7 -36 28 -97 47 -134z m1016 138 c-10 -84 -67 -192 -140 -267 -59
-60 -144 -116 -196 -131 -14 -3 8 11 49 31 143 73 261 229 277 367 4 31 9 57
12 57 3 0 2 -26 -2 -57z m-673 -410 c-7 -2 -19 -2 -25 0 -7 3 -2 5 12 5 14 0
19 -2 13 -5z m300 0 c-7 -2 -19 -2 -25 0 -7 3 -2 5 12 5 14 0 19 -2 13 -5z
m-240 -10 c-7 -2 -21 -2 -30 0 -10 3 -4 5 12 5 17 0 24 -2 18 -5z m190 0 c-7
-2 -19 -2 -25 0 -7 3 -2 5 12 5 14 0 19 -2 13 -5z m-90 -10 c-7 -2 -21 -2 -30
0 -10 3 -4 5 12 5 17 0 24 -2 18 -5z"/>
</g>
</svg>
